<?xml version="1.0" encoding="UTF-8"?>
<svg id="Top" xmlns="http://www.w3.org/2000/svg" viewBox="0 0 72.5 72.57">
  <defs>
    <style>
      .cls-1 {
        fill: #fff;
      }

      .cls-1, .cls-2 {
        stroke-width: 0px;
      }

      .cls-2 {
        fill: #697b5d;
      }
    </style>
  </defs>
  <g>
    <g id="Logo_Stamp" data-name="Logo Stamp">
      <path id="Fill_4" data-name="Fill 4" class="cls-2" d="m36.27,56.48h0c-2.14,0-4.26-.34-6.29-1.01-4.06-1.33-7.6-3.92-10.11-7.38-6.52-9.04-4.48-21.65,4.56-28.17,5.24-3.78,11.98-4.82,18.12-2.8,4.06,1.33,7.6,3.92,10.11,7.38,6.51,9.05,4.45,21.68-4.6,28.19-3.43,2.47-7.55,3.8-11.78,3.8Z"/>
      <path class="cls-2" d="m56.14,36.26c0,10.98-8.89,19.9-19.87,19.91-8.73-.04-16.43-5.74-19.03-14.07-.57-1.88-.86-3.83-.86-5.78-.01-10.99,8.89-19.9,19.87-19.91,8.73.04,16.43,5.74,19.03,14.07.57,1.88.86,3.83.86,5.79Z"/>
    </g>
    <g>
      <path class="cls-1" d="m28.12,34.61v-2.19l-1.63-2.97h.76l.73,1.42c.2.39.35.7.51,1.06h.02c.15-.34.32-.67.52-1.06l.74-1.42h.76l-1.73,2.96v2.2h-.67Z"/>
      <path class="cls-1" d="m35.78,31.98c0,1.78-1.08,2.72-2.4,2.72s-2.32-1.06-2.32-2.62c0-1.64,1.02-2.71,2.4-2.71s2.32,1.08,2.32,2.61Zm-4.01.08c0,1.1.6,2.09,1.65,2.09s1.65-.97,1.65-2.14c0-1.03-.54-2.1-1.65-2.1s-1.65,1.02-1.65,2.15Z"/>
      <path class="cls-1" d="m37.85,29.45v3.06c0,1.16.51,1.65,1.2,1.65.77,0,1.26-.51,1.26-1.65v-3.06h.67v3.01c0,1.59-.83,2.24-1.95,2.24-1.06,0-1.85-.61-1.85-2.21v-3.04h.67Z"/>
      <path class="cls-1" d="m42.67,29.52c.34-.07.82-.11,1.28-.11.71,0,1.17.13,1.49.42.26.23.41.58.41.98,0,.68-.43,1.13-.97,1.32v.02c.4.14.64.51.76,1.04.17.72.29,1.22.4,1.42h-.69c-.08-.15-.2-.59-.34-1.23-.15-.71-.43-.98-1.03-1h-.63v2.24h-.67v-5.09Zm.67,2.35h.68c.71,0,1.16-.39,1.16-.98,0-.67-.48-.96-1.19-.97-.32,0-.55.03-.66.06v1.88Z"/>
      <path class="cls-1" d="m30.47,42.95c-.25.12-.74.25-1.36.25-1.46,0-2.55-.92-2.55-2.61s1.09-2.71,2.7-2.71c.64,0,1.05.14,1.23.23l-.16.54c-.25-.12-.61-.21-1.04-.21-1.21,0-2.01.77-2.01,2.13,0,1.26.73,2.08,1.98,2.08.41,0,.82-.08,1.09-.21l.14.53Z"/>
      <path class="cls-1" d="m36.09,40.48c0,1.78-1.08,2.72-2.4,2.72s-2.32-1.06-2.32-2.62c0-1.64,1.02-2.71,2.4-2.71s2.32,1.08,2.32,2.61Zm-4.01.08c0,1.1.6,2.09,1.65,2.09s1.65-.97,1.65-2.14c0-1.03-.54-2.1-1.65-2.1s-1.65,1.02-1.65,2.15Z"/>
      <path class="cls-1" d="m37.49,38.03c.41-.06.89-.11,1.42-.11.96,0,1.64.22,2.09.64.46.42.73,1.02.73,1.85s-.26,1.53-.74,2.01c-.48.48-1.28.74-2.28.74-.47,0-.87-.02-1.21-.06v-5.08Zm.67,4.56c.17.03.41.04.67.04,1.42,0,2.2-.8,2.2-2.19,0-1.22-.68-1.99-2.09-1.99-.34,0-.61.03-.78.07v4.07Z"/>
      <path class="cls-1" d="m45.8,40.7h-2.01v1.86h2.24v.56h-2.9v-5.16h2.79v.56h-2.12v1.63h2.01v.55Z"/>
    </g>
  </g>
  <g>
    <path class="cls-2" d="m36.29,67.88v-.68c-3.27,0-6.52-.52-9.63-1.55-13.03-4.27-21.3-16.37-21.3-29.37,0-3.19.5-6.43,1.55-9.63,3.13-9.55,10.7-16.98,20.31-19.93,2.93-.9,5.96-1.35,8.99-1.35,3.25,0,6.5.52,9.63,1.55,13.03,4.27,21.3,16.37,21.3,29.37,0,3.19-.5,6.43-1.55,9.63-3.13,9.55-10.7,16.98-20.31,19.93-2.91.89-5.94,1.35-8.99,1.35v.68s0,.68,0,.68c3.18,0,6.35-.48,9.39-1.41,10.03-3.08,17.94-10.84,21.21-20.81,1.09-3.34,1.61-6.73,1.61-10.06,0-13.58-8.63-26.21-22.24-30.67-3.26-1.08-6.66-1.62-10.05-1.62-3.16,0-6.33.47-9.39,1.41-10.03,3.08-17.94,10.84-21.21,20.81-1.09,3.34-1.61,6.72-1.61,10.06,0,13.58,8.63,26.21,22.24,30.67,3.24,1.07,6.64,1.62,10.05,1.62v-.68Z"/>
    <path class="cls-2" d="m36.24,14.9v-.68c-12.18,0-22.05,9.89-22.05,22.06v.08s.68-.06.68-.06h-.68c0,2.18.33,4.34.96,6.42h0c2.88,9.25,11.42,15.57,21.11,15.62h0c12.18-.01,22.05-9.89,22.05-22.07h0s-.49-.01-.49-.01l.49.03v-.03s-.49,0-.49,0l.49.03v-.04c0-2.17-.32-4.34-.96-6.42h0c-2.88-9.25-11.42-15.57-21.11-15.62h0v.68s0,.68,0,.68c9.09.04,17.11,5.97,19.81,14.65h0c.59,1.95.9,3.98.9,6.02h.68l-.68-.04v.07c0,11.42-9.26,20.69-20.69,20.7h0c-9.09-.04-17.11-5.97-19.81-14.65h0c-.59-1.95-.9-3.98-.9-6.02v-.06s-.5.04-.5.04h.5s0-.04,0-.04l-.5.04h.5s-.19,0-.19,0h.19s0,0,0,0h-.19s.19,0,.19,0h0c0-11.43,9.26-20.7,20.69-20.71h0v-.68Z"/>
    <polygon class="cls-2" points="21.63 17.03 19.82 13.86 22.85 15.6 23.02 15.49 22.75 11.93 24.85 14.99 25.39 14.65 22.68 10.98 22.38 11.17 22.6 14.78 19.48 13.01 19.17 13.2 21.31 17.23 21.63 17.03"/>
    <polygon class="cls-2" points="27.59 13.8 28.13 13.6 27.38 11.56 28.04 8.78 27.59 8.95 27.09 11.29 25.17 9.84 24.51 10.09 26.86 11.83 27.59 13.8"/>
    <polygon class="cls-2" points="33.22 12.38 32.98 10.19 34.6 10 34.56 9.63 32.94 9.81 32.76 8.23 34.46 8.04 34.42 7.67 32.14 7.92 32.64 12.44 33.22 12.38"/>
    <polygon class="cls-2" points="38.45 11.87 36.65 11.81 36.71 10.01 38.44 10.07 38.46 9.69 36.72 9.64 36.77 8.01 38.55 8.07 38.56 7.7 36.21 7.62 36.05 12.16 38.44 12.25 38.45 11.87"/>
    <polygon class="cls-2" points="42.05 12.48 40.28 12.15 40.61 10.38 42.32 10.7 42.39 10.33 40.68 10.01 40.99 8.41 42.73 8.74 42.8 8.38 40.48 7.94 39.64 12.4 41.98 12.84 42.05 12.48"/>
    <polygon class="cls-2" points="45.58 13.63 43.87 13.03 45.24 9.09 44.69 8.9 43.2 13.19 45.46 13.98 45.58 13.63"/>
    <path class="cls-2" d="m50.23,16.79c.47.3.98.51,1.53.63l1.07-1.55-.96-.66-.12.18.31.53-.71,1.03c-.34-.07-.66-.22-.94-.43-.86-.51-1.14-1.61-.64-2.47.05-.09.11-.18.18-.26.66-.96,1.78-1.36,2.77-.68.43.28.74.7.89,1.18l.34-.31c-.25-.45-.59-.83-1.01-1.12-1.02-.83-2.52-.68-3.35.34l-.16.22c-.88,1.27-.36,2.58.79,3.37"/>
    <path class="cls-2" d="m55.73,20.91c-.69,0-1.34-.31-1.79-.84-.43-.44-.67-1.04-.66-1.66.05-.65.36-1.25.86-1.67.44-.42,1.03-.66,1.64-.66.68,0,1.32.31,1.76.82.88.87.89,2.29.01,3.17l-.18.16c-.44.42-1.02.65-1.63.66Zm.36-4.34c-.61.04-1.19.3-1.61.74-.78.58-.94,1.68-.36,2.46l.08.1c.3.34.74.54,1.19.53.59-.02,1.15-.26,1.57-.67.43-.38.69-.91.74-1.48.02-.42-.13-.83-.42-1.13-.3-.35-.73-.55-1.19-.56Z"/>
    <path class="cls-2" d="m59.3,25.95c-.88-.01-1.67-.51-2.06-1.3-.32-.53-.41-1.17-.25-1.76.2-.62.64-1.13,1.22-1.41.37-.21.79-.32,1.22-.32.87,0,1.66.5,2.04,1.28.65,1.05.32,2.43-.73,3.08l-.22.12c-.37.21-.79.32-1.21.32Zm.44-4.24c-.47.02-.93.15-1.33.39-.42.22-.76.58-.96,1.01-.2.46-.17.98.08,1.41.29.54.87.87,1.48.85.43,0,.86-.12,1.23-.34.87-.48,1.47-1.48.93-2.46-.27-.54-.83-.88-1.44-.87h0Z"/>
    <path class="cls-2" d="m61.53,31.24h0c-1.1-.02-2.02-.82-2.2-1.9l-.38-1.43,4.4-1.17.46,1.73c.21.62.12,1.3-.25,1.84-.33.42-.8.71-1.32.83-.23.06-.47.1-.71.1Zm1.65-3.85h0l-3.77,1,.18.67c.28,1.05.84,1.56,1.72,1.56.26,0,.51-.04.76-.11.5-.1.94-.4,1.21-.82.23-.45.27-.98.11-1.47l-.22-.84h0Z"/>
    <path class="cls-2" d="m60.34,35.01v.58l4.25-.02v.61c.05.43-.25.82-.68.87h-.19c-.78,0-.97-.48-1.02-1.19h-.31c.05,1.3.48,1.83,1.4,1.83.73,0,1.11-.52,1.11-1.42v-1.29s-4.56.02-4.56.02Z"/>
    <path class="cls-2" d="m59.72,42.11h0l.11-.67,1.48-.31.31-1.95-1.3-.77.07-.43,4.24,2.68-.04.26-4.86,1.18Zm2.16-2.74l-.27,1.69,2.17-.51-1.9-1.18Z"/>
    <path class="cls-2" d="m61.63,43.38c-1.19-.44-2.51.18-2.94,1.37l-.05.16c-.13.36-.18.75-.17,1.14l.22.32h.17c-.1-.42-.08-.88.06-1.31.34-.97,1.4-1.47,2.37-1.13l.19.08c1.01.26,1.63,1.29,1.37,2.31l-.03.11c-.14.45-.44.83-.84,1.08l.4.24c.32-.33.57-.72.73-1.15.52-1.21-.03-2.61-1.24-3.13l-.24-.09"/>
    <polygon class="cls-2" points="57.47 47.72 59.39 48.84 56.5 49.37 56.13 50.02 59.37 49.42 60.15 52.17 60.41 51.73 59.53 48.92 61.4 50.01 61.69 49.51 57.76 47.22 57.47 47.72"/>
    <path class="cls-2" d="m53.99,52.46c-.08.14-.11.3-.07.46l.3.28c.15,0,.29-.06.41-.15.11-.18.07-.4-.08-.54-.15-.15-.38-.16-.55-.04"/>
    <polygon class="cls-2" points="51.17 55.31 53.03 58.45 49.98 56.75 49.81 56.87 50.13 60.43 47.98 57.4 47.45 57.74 50.21 61.38 50.51 61.18 50.23 57.57 53.39 59.3 53.69 59.1 51.49 55.1 51.17 55.31"/>
    <polygon class="cls-2" points="45.28 58.62 44.74 58.83 45.52 60.85 44.91 63.64 45.35 63.47 45.81 61.12 47.75 62.53 48.41 62.27 46.04 60.57 45.28 58.62"/>
    <polygon class="cls-2" points="39.66 60.13 39.94 62.32 38.32 62.53 38.37 62.9 39.99 62.69 40.18 64.27 38.49 64.49 38.54 64.86 40.81 64.57 40.24 60.06 39.66 60.13"/>
    <polygon class="cls-2" points="34.44 60.72 36.24 60.75 36.21 62.55 34.47 62.52 34.47 62.89 36.2 62.92 36.17 64.54 34.4 64.51 34.39 64.88 36.74 64.93 36.83 60.39 34.45 60.34 34.44 60.72"/>
    <polygon class="cls-2" points="30.81 60.17 32.59 60.48 32.29 62.26 30.58 61.96 30.52 62.33 32.23 62.62 31.95 64.23 30.2 63.93 30.14 64.3 32.46 64.69 33.23 60.21 30.88 59.81 30.81 60.17"/>
    <polygon class="cls-2" points="27.26 59.07 28.99 59.64 27.67 63.6 28.22 63.79 29.66 59.47 27.38 58.72 27.26 59.07"/>
    <path class="cls-2" d="m22.6,56c-.47-.29-.99-.5-1.54-.61l-1.05,1.57.97.65.12-.18-.32-.52.7-1.04c.34.07.66.21.94.41.87.49,1.17,1.6.67,2.46-.05.09-.11.18-.18.26-.64.97-1.76,1.39-2.76.73-.43-.27-.75-.68-.91-1.17l-.34.32c.25.44.61.82,1.03,1.1,1.03.82,2.53.64,3.34-.39l.16-.23c.85-1.28.32-2.59-.84-3.36"/>
    <path class="cls-2" d="m17.03,56.8h0c-.67-.01-1.3-.3-1.74-.8-.9-.86-.92-2.28-.06-3.18l.18-.17c.45-.43,1.04-.68,1.66-.69.68.01,1.32.3,1.76.81.45.44.7,1.04.69,1.67-.04.64-.34,1.24-.82,1.66-.45.44-1.04.69-1.67.7Zm.37-4.33c-.6.02-1.16.27-1.59.7-.42.39-.68.92-.72,1.49-.01.42.15.82.44,1.12.3.34.72.53,1.17.54.62-.04,1.2-.31,1.63-.77.35-.32.59-.75.68-1.22.08-.49-.08-.99-.44-1.34-.3-.33-.73-.52-1.18-.52Z"/>
    <path class="cls-2" d="m13.29,51.77c-.85-.01-1.63-.49-2.03-1.24-.37-.58-.45-1.3-.22-1.95.22-.54.61-.99,1.12-1.27.38-.22.81-.34,1.25-.34.86.01,1.65.5,2.05,1.26.33.53.43,1.18.27,1.78-.19.61-.62,1.12-1.19,1.41-.38.22-.81.34-1.25.34Zm.4-4.23c-.44,0-.88.13-1.26.35-.86.49-1.44,1.5-.89,2.47.27.53.82.85,1.42.84.48-.02.95-.16,1.36-.41.89-.4,1.29-1.44.89-2.32l-.05-.11c-.3-.53-.86-.85-1.47-.83Z"/>
    <path class="cls-2" d="m9.37,46.32h0l-.51-1.72c-.4-1.06.13-2.23,1.19-2.63.1-.04.2-.07.3-.09.25-.08.51-.12.77-.12,1.07.03,1.97.79,2.19,1.83l.42,1.42-4.36,1.31h0Zm1.97-3.95c-.28,0-.56.05-.82.13-.92.16-1.53,1.04-1.37,1.95.02.13.06.25.11.37l.25.84,3.73-1.12-.2-.67c-.3-1.02-.86-1.51-1.71-1.51Z"/>
    <path class="cls-2" d="m12.18,37.3l-4.24.07v-.62c-.07-.43.23-.82.66-.88h.19c.77-.02.98.47,1.04,1.18h.31c-.06-1.3-.5-1.83-1.42-1.82-.73.01-1.11.53-1.09,1.44l.02,1.28,4.55-.08v-.58Z"/>
    <path class="cls-2" d="m12.11,34.95h0l-4.28-2.61.04-.27,4.84-1.26-.1.67-1.47.34-.28,1.96,1.31.75-.06.43h0Zm-1.27-3.05l-2.16.55,1.92,1.15.24-1.69h0Z"/>
    <path class="cls-2" d="m10.77,29.56c1.2.42,2.51-.22,2.92-1.42l.05-.16c.12-.37.17-.75.15-1.14l-.23-.32h-.17c.11.42.09.88-.05,1.31-.33.97-1.38,1.49-2.35,1.16l-.19-.08c-1.02-.25-1.65-1.27-1.4-2.29l.03-.11c.13-.45.43-.84.83-1.09l-.41-.23c-.31.34-.56.73-.71,1.16-.5,1.22.07,2.61,1.29,3.12l.23.08"/>
    <polygon class="cls-2" points="14.87 25.16 12.94 24.07 15.81 23.5 16.17 22.85 12.95 23.5 12.13 20.77 11.88 21.21 12.79 23.99 10.91 22.93 10.63 23.44 14.59 25.66 14.87 25.16"/>
    <path class="cls-2" d="m18.27,20.37c.08-.14.1-.3.06-.46l-.3-.27c-.15,0-.29.06-.4.16-.1.18-.06.4.09.54.15.14.38.16.55.03"/>
    <polygon class="cls-2" points="48.39 12.64 46.76 11.9 46.6 12.25 48.23 12.99 48.39 12.64"/>
    <rect class="cls-2" x="25.14" y="59.21" width=".39" height="1.78" transform="translate(-39.87 58.4) rotate(-65.65)"/>
    <path class="cls-2" d="m36.49,20.39h.02s.01-.03.01-.03v-.02s-.03-.01-.03-.01h-.02s-.01.03-.01.03v.02s.03,0,.03,0Z"/>
  </g>
</svg>